<svg width="46" height="16" viewBox="0 0 46 16" fill="none" xmlns="http://www.w3.org/2000/svg">
<path d="M7.61046 0L17 9.76026V15H12.6182V11.6439L5.79846 4.55478H4.38179V15H0V0H7.61046ZM12.6182 5.20548V0H17V5.20548H12.6182Z" fill="#212326"/>
<path d="M21.6776 13.1321C21.0327 13.1321 20.4773 12.9943 20.0114 12.7188C19.5483 12.4403 19.1903 12.0497 18.9375 11.5469C18.6875 11.0412 18.5625 10.4489 18.5625 9.76989C18.5625 9.09943 18.6875 8.50852 18.9375 7.99716C19.1903 7.4858 19.5426 7.08665 19.9943 6.79972C20.4489 6.51278 20.9801 6.36932 21.5881 6.36932C21.9574 6.36932 22.3153 6.4304 22.6619 6.55256C23.0085 6.67472 23.3196 6.86648 23.5952 7.12784C23.8707 7.3892 24.0881 7.72869 24.2472 8.14631C24.4063 8.56108 24.4858 9.06534 24.4858 9.65909V10.1108H19.2827V9.15625H23.2372C23.2372 8.82102 23.169 8.52415 23.0327 8.26562C22.8963 8.00426 22.7045 7.7983 22.4574 7.64773C22.2131 7.49716 21.9261 7.42188 21.5966 7.42188C21.2386 7.42188 20.9261 7.50994 20.6591 7.68608C20.3949 7.85937 20.1903 8.08665 20.0455 8.3679C19.9034 8.64631 19.8324 8.94886 19.8324 9.27557V10.0213C19.8324 10.4588 19.9091 10.831 20.0625 11.1378C20.2188 11.4446 20.4361 11.679 20.7145 11.8409C20.9929 12 21.3182 12.0795 21.6903 12.0795C21.9318 12.0795 22.152 12.0455 22.3509 11.9773C22.5497 11.9062 22.7216 11.8011 22.8665 11.6619C23.0114 11.5227 23.1222 11.3509 23.1989 11.1463L24.4048 11.3636C24.3082 11.7187 24.1349 12.0298 23.8849 12.2969C23.6378 12.5611 23.3267 12.767 22.9517 12.9148C22.5795 13.0597 22.1548 13.1321 21.6776 13.1321ZM26.7528 6.45455L28.1974 9.00284L29.6548 6.45455H31.0483L29.0071 9.72727L31.0653 13H29.6719L28.1974 10.554L26.7273 13H25.3295L27.3665 9.72727L25.3551 6.45455H26.7528ZM36.5028 10.2855V6.45455H37.7812V13H36.5284V11.8665H36.4602C36.3097 12.2159 36.0682 12.5071 35.7358 12.7401C35.4063 12.9702 34.9957 13.0852 34.5043 13.0852C34.0838 13.0852 33.7116 12.9929 33.3878 12.8082C33.0668 12.6207 32.8139 12.3438 32.6293 11.9773C32.4474 11.6108 32.3565 11.1577 32.3565 10.6179V6.45455H33.6307V10.4645C33.6307 10.9105 33.7543 11.2656 34.0014 11.5298C34.2486 11.794 34.5696 11.9261 34.9645 11.9261C35.2031 11.9261 35.4403 11.8665 35.6761 11.7472C35.9148 11.6278 36.1122 11.4474 36.2685 11.206C36.4276 10.9645 36.5057 10.6577 36.5028 10.2855ZM44.3981 8.05256L43.2433 8.2571C43.195 8.10937 43.1183 7.96875 43.0131 7.83523C42.9109 7.7017 42.7717 7.59233 42.5955 7.5071C42.4194 7.42187 42.1992 7.37926 41.935 7.37926C41.5742 7.37926 41.2731 7.46023 41.0316 7.62216C40.7901 7.78125 40.6694 7.98722 40.6694 8.24006C40.6694 8.45881 40.7504 8.63494 40.9123 8.76847C41.0742 8.90199 41.3356 9.01136 41.6964 9.09659L42.7362 9.33523C43.3384 9.47443 43.7873 9.68892 44.0827 9.97869C44.3782 10.2685 44.5259 10.6449 44.5259 11.108C44.5259 11.5 44.4123 11.8494 44.185 12.1562C43.9606 12.4602 43.6467 12.6989 43.2433 12.8722C42.8427 13.0455 42.3782 13.1321 41.8498 13.1321C41.1168 13.1321 40.5188 12.9759 40.0558 12.6634C39.5927 12.348 39.3086 11.9006 39.2035 11.321L40.435 11.1335C40.5117 11.4545 40.6694 11.6974 40.908 11.8622C41.1467 12.0241 41.4577 12.1051 41.8413 12.1051C42.2589 12.1051 42.5927 12.0185 42.8427 11.8452C43.0927 11.669 43.2177 11.4545 43.2177 11.2017C43.2177 10.9972 43.141 10.8253 42.9876 10.6861C42.837 10.5469 42.6055 10.4418 42.293 10.3707L41.185 10.1278C40.5742 9.98864 40.1225 9.76705 39.8299 9.46307C39.5401 9.15909 39.3952 8.77415 39.3952 8.30824C39.3952 7.92187 39.5032 7.58381 39.7191 7.29403C39.935 7.00426 40.2333 6.77841 40.614 6.61648C40.9947 6.4517 41.4308 6.36932 41.9222 6.36932C42.6296 6.36932 43.1864 6.52273 43.5927 6.82955C43.9989 7.13352 44.2674 7.54119 44.3981 8.05256Z" fill="black"/>
</svg>
